<svg width="64" height="61" viewBox="0 0 64 61" fill="none" xmlns="http://www.w3.org/2000/svg">
<path d="M25.7978 54.857C23.69 58.5008 19.7504 60.9522 15.2382 60.9522C8.50561 60.9522 3.04775 55.4944 3.04775 48.7618C3.04775 42.0292 8.50561 36.5713 15.2382 36.5713C19.7504 36.5713 23.69 39.0228 25.7978 42.6666H15.2382C11.8719 42.6666 9.14298 45.3955 9.14298 48.7618C9.14298 52.1281 11.8719 54.857 15.2382 54.857H25.7978Z" fill="#474747"/>
<path d="M29.0595 42.6666C31.1673 39.0228 35.1069 36.5713 39.6191 36.5713C46.3517 36.5713 51.8096 42.0292 51.8096 48.7618C51.8096 55.4944 46.3517 60.9522 39.6191 60.9522C35.1069 60.9522 31.1673 58.5008 29.0595 54.857H39.6191C42.9854 54.857 45.7143 52.1281 45.7143 48.7618C45.7143 45.3955 42.9854 42.6666 39.6191 42.6666H29.0595Z" fill="#474747"/>
<path d="M0.000655521 0H6.09588L6.09587 52.9523C6.09587 52.9523 2.39082 49.9146 1.14299 47.238C0.486698 45.8302 0.000186662 44.2052 0.000141627 43.4285C-0.000366366 34.6666 0.000655521 0 0.000655521 0Z" fill="#474747"/>
<path d="M5.33346 0H24.381V6.09522H5.33346V0Z" fill="#474747"/>
<path d="M15.2382 6.09522H21.3334V27.4285H15.2382V6.09522Z" fill="#474747"/>
<path d="M6.09536 21.3333H36.5715V23.619C36.5715 25.7229 34.8659 27.4285 32.762 27.4285H6.09536V21.3333Z" fill="#474747"/>
<path d="M27.4287 9.14284H51.8096V15.2381H27.4287V9.14284Z" fill="#474747"/>
<path d="M30.4763 14.4762H36.5715V22.0952H30.4763V14.4762Z" fill="#474747"/>
<path d="M42.6667 15.2381H48.7619V27.4285H45.7143C44.0312 27.4285 42.6667 26.064 42.6667 24.3809V15.2381Z" fill="#474747"/>
<path d="M45.7143 27.4285V21.3333H55.6191V21.3442C60.2814 21.6131 64 26.7926 64 33.1428C64 39.665 60.0772 44.9523 55.2381 44.9523C55.1105 44.9523 54.9835 44.9486 54.8572 44.9413V39.2721C56.1888 38.4354 57.1429 36.1776 57.1429 33.5237C57.1429 30.8698 56.1888 28.6121 54.8572 27.7753V27.4285H45.7143Z" fill="#474747"/>
<path d="M54.8572 38.8571H60.9524V48.7618C60.9524 50.4449 59.5879 51.8094 57.9048 51.8094H54.8572V38.8571Z" fill="#474747"/>
<path d="M50.2857 45.7142H56.381V51.8094H50.2857V45.7142Z" fill="#474747"/>
<path d="M15.2382 45.7142H39.6191V51.8094H15.2382V45.7142Z" fill="#474747"/>
</svg>
