<svg width="54" height="53" viewBox="0 0 54 53" fill="none" xmlns="http://www.w3.org/2000/svg">
<path d="M18.1216 12.4898C16.7943 15.9282 13.4575 18.3673 9.55102 18.3673C4.47902 18.3673 0.367347 14.2557 0.367347 9.18367C0.367347 4.11167 4.47902 0 9.55102 0C13.7304 0 17.2578 2.79182 18.3698 6.61227H44.7632C44.7898 6.61151 44.8194 6.61088 44.8519 6.6105C44.9466 6.60938 45.0665 6.61035 45.208 6.61629C45.4899 6.62814 45.8648 6.66004 46.3028 6.73734C47.1716 6.89066 48.3468 7.23312 49.5353 8.00211C52.0987 9.66079 54 12.8092 54 18C54 23.1945 52.1031 26.372 49.6335 28.1152C48.4766 28.9318 47.3261 29.3367 46.4652 29.5392C46.0319 29.6412 45.6602 29.6948 45.3795 29.7231C45.2387 29.7373 45.1192 29.7453 45.0246 29.7497C44.9773 29.752 44.936 29.7533 44.9012 29.7541C44.8837 29.7545 44.8679 29.7547 44.8538 29.7549L44.8338 29.7551L44.8248 29.7551L44.8205 29.7551C44.8184 29.7551 44.8163 29.7551 44.8163 26.8163V29.7551H10.6789C10.662 29.7558 10.621 29.7577 10.5607 29.7626C10.4389 29.7725 10.2426 29.7943 9.99758 29.841C9.4959 29.9365 8.86113 30.123 8.25396 30.47C7.23217 31.0538 5.87755 32.2893 5.87755 35.6327C5.87755 38.9761 7.23217 40.2115 8.25396 40.7954C8.86113 41.1423 9.4959 41.3288 9.99758 41.4244C10.2426 41.471 10.4389 41.4928 10.5607 41.5027C10.621 41.5077 10.6614 41.5096 10.6783 41.5102L35.1641 41.5102C36.1513 37.5027 39.7694 34.5306 44.0816 34.5306C49.1536 34.5306 53.2653 38.6423 53.2653 43.7143C53.2653 48.7863 49.1536 52.898 44.0816 52.898C40.3157 52.898 37.0793 50.6313 35.6621 47.3878H10.6531V44.449C10.6531 47.3878 10.6514 47.3878 10.6497 47.3878L10.6384 47.3877L10.6208 47.3876L10.6149 47.3876L10.5768 47.387C10.5436 47.3864 10.5026 47.3853 10.4546 47.3835C10.3585 47.3798 10.2331 47.3731 10.0825 47.3608C9.78235 47.3363 9.37606 47.2892 8.89782 47.1981C7.95308 47.0182 6.65928 46.6536 5.33788 45.8985C2.50252 44.2783 0 41.1056 0 35.6327C0 30.1597 2.50252 26.987 5.33788 25.3668C6.65927 24.6117 7.95308 24.2472 8.89782 24.0672C9.37606 23.9761 9.78235 23.929 10.0825 23.9045C10.2331 23.8922 10.3585 23.8855 10.4546 23.8819C10.5026 23.88 10.5436 23.879 10.5768 23.8783C10.5844 23.8782 10.5916 23.8781 10.5984 23.878C10.6064 23.8779 10.6139 23.8778 10.6208 23.8777L10.6384 23.8776L10.6461 23.8776L10.6497 23.8776C10.6514 23.8776 10.6531 23.8776 10.6531 26.8163V23.8776H44.7637C44.7704 23.877 44.7791 23.8763 44.7898 23.8752C44.8507 23.869 44.9668 23.8538 45.119 23.8179C45.429 23.745 45.8397 23.5988 46.244 23.3134C46.8969 22.8525 48.1224 21.6218 48.1224 18C48.1224 14.3745 46.9013 13.2985 46.3423 12.9367C45.9695 12.6955 45.5835 12.5788 45.2814 12.5255C45.134 12.4994 45.021 12.4912 44.9613 12.4887C44.9511 12.4882 44.9427 12.488 44.9363 12.4878L44.9027 12.4898H18.1216Z" fill="#474747"/>
</svg>
