<svg width="39" height="58" viewBox="0 0 39 58" fill="#9d9d9d"  xmlns="http://www.w3.org/2000/svg">
<path d="M27.9916 16.4151V27.3585H30.7359V32.8302H22.5031V10.9434H27.9916L19.7588 0L11.526 10.9434H17.0145V32.8302H8.78169V27.167C10.7027 26.1547 12.0748 24.2123 12.0748 21.8868C12.0748 20.2905 11.4387 18.7596 10.3065 17.6308C9.17427 16.5021 7.63863 15.8679 6.03741 15.8679C2.68939 15.8679 0 18.5491 0 21.8868C0 24.2123 1.37214 26.1547 3.29313 27.167V32.8302C3.29313 34.2814 3.87139 35.6731 4.90069 36.6993C5.93 37.7254 7.32603 38.3019 8.78169 38.3019H17.0145V46.6462C15.0661 47.6311 13.7214 49.6557 13.7214 51.9811C13.7214 53.5774 14.3575 55.1084 15.4897 56.2371C16.6219 57.3659 18.1576 58 19.7588 58C21.36 58 22.8957 57.3659 24.0279 56.2371C25.1601 55.1084 25.7962 53.5774 25.7962 51.9811C25.7962 49.6557 24.4515 47.6311 22.5031 46.6462V38.3019H30.7359C32.1916 38.3019 33.5876 37.7254 34.6169 36.6993C35.6462 35.6731 36.2245 34.2814 36.2245 32.8302V27.3585H38.9687V16.4151H27.9916Z"/>
</svg>
