<svg width="64" height="63" viewBox="0 0 64 63" fill="none" xmlns="http://www.w3.org/2000/svg">
<path d="M9.26905 51.1988C8.45878 51.1988 7.80206 51.859 7.80206 52.6735V58.517H2.46698C1.65672 58.517 1 59.1772 1 59.9918V60.0999C1 60.9145 1.65672 61.5747 2.46698 61.5747H61.533C62.3433 61.5747 63 60.9145 63 60.0999V59.9918C63 59.1772 62.3433 58.517 61.533 58.517H56.1979V52.6735C56.1979 51.859 55.5412 51.1988 54.731 51.1988H37.8229V33.4535H39.5184C40.3286 33.4535 40.9853 32.7932 40.9853 31.9787V25.1261C43.9799 22.5081 45.6836 18.7691 45.6836 14.7559C45.6836 7.1709 39.5453 1 32.0001 1C24.4549 1 18.3166 7.1709 18.3166 14.7559C18.3166 18.7691 20.0202 22.5083 23.0148 25.1261V31.9785C23.0148 32.7931 23.6715 33.4533 24.4818 33.4533H26.1773V51.1986L9.26905 51.1988ZM53.2638 58.517H10.736V54.1483H53.2636L53.2638 58.517ZM21.2504 14.7559C21.2504 8.79723 26.0727 3.94952 31.9999 3.94952C37.9272 3.94952 42.7495 8.79723 42.7495 14.7559C42.7495 18.1008 41.2422 21.2046 38.6144 23.2709C36.7078 24.7701 34.4204 25.5627 31.9999 25.5627C29.5794 25.5627 27.292 24.7701 25.3855 23.2709C22.7576 21.2046 21.2504 18.1008 21.2504 14.7559ZM25.9486 27.0982C25.956 27.1018 25.9635 27.1051 25.9708 27.1087C25.9938 27.12 26.0169 27.1308 26.0399 27.142C26.1693 27.2054 26.2996 27.2663 26.4306 27.3252C26.4722 27.3438 26.5136 27.3627 26.5553 27.3809C26.7066 27.4469 26.8583 27.5115 27.0119 27.5719L27.0171 27.5742C27.1719 27.6352 27.3282 27.6924 27.4852 27.7474C27.5277 27.7625 27.5705 27.7773 27.6132 27.7917C27.7488 27.8379 27.885 27.8821 28.0223 27.9239C28.0467 27.9315 28.0713 27.9396 28.096 27.947C28.2542 27.9944 28.4135 28.0381 28.5737 28.0796C28.6149 28.0901 28.6563 28.1002 28.6976 28.1104C28.8296 28.1432 28.962 28.174 29.095 28.2026C29.1313 28.2107 29.1673 28.219 29.2037 28.2266C29.3657 28.2603 29.5285 28.2911 29.692 28.3188C29.7282 28.325 29.7644 28.3301 29.8006 28.336C29.9359 28.358 30.0717 28.3776 30.2078 28.3953C30.2505 28.4009 30.293 28.4067 30.3359 28.4121C30.5016 28.4321 30.6681 28.4496 30.8351 28.4635C30.8604 28.4658 30.886 28.467 30.9113 28.4689C31.0573 28.4804 31.2038 28.4894 31.3505 28.4961C31.396 28.4983 31.4416 28.5002 31.4873 28.5019C31.6576 28.5081 31.8284 28.5123 31.9999 28.5123C32.1714 28.5123 32.3422 28.5081 32.5125 28.5019C32.5582 28.5002 32.6038 28.4983 32.6493 28.4961C32.796 28.4894 32.9427 28.4804 33.0886 28.4689C33.1138 28.467 33.1394 28.4656 33.1647 28.4635C33.3318 28.4496 33.4984 28.4321 33.664 28.4121C33.7068 28.4068 33.7494 28.4011 33.7921 28.3953C33.9282 28.3776 34.064 28.3578 34.1991 28.336C34.2353 28.3301 34.2716 28.325 34.3078 28.3188C34.4713 28.2911 34.6341 28.2605 34.7961 28.2266C34.8325 28.219 34.8685 28.2107 34.9049 28.2026C35.0379 28.1738 35.1704 28.1432 35.3023 28.1104C35.3435 28.1001 35.3849 28.0901 35.4261 28.0796C35.5862 28.0381 35.7456 27.9944 35.9039 27.947C35.9285 27.9396 35.9531 27.9315 35.9776 27.9239C36.1148 27.8821 36.2511 27.8381 36.3867 27.7917C36.4294 27.7773 36.4721 27.7625 36.5146 27.7474C36.6716 27.6924 36.8279 27.6352 36.9828 27.5742L36.988 27.5719C37.1414 27.5115 37.2933 27.4469 37.4445 27.3809C37.4863 27.3627 37.5277 27.3438 37.5692 27.3252C37.7004 27.2663 37.8307 27.2054 37.9599 27.142C37.9829 27.1308 38.0061 27.12 38.029 27.1087C38.0364 27.1051 38.0439 27.1018 38.0512 27.0982V30.5039H25.9488L25.9486 27.0982ZM29.1111 33.4535H34.8886V51.1988H29.1111V33.4535Z" fill="#474747"/>
<path fill-rule="evenodd" clip-rule="evenodd" d="M13.0618 45.2429C12.3417 45.2429 11.7579 45.8298 11.7579 46.5538V54.0914H22.8417V46.5538C22.8417 45.8298 22.2579 45.2429 21.5377 45.2429H13.0618ZM14.3658 47.2092C14.0057 47.2092 13.7138 47.5027 13.7138 47.8647V51.6335C13.7138 51.9955 14.0057 52.289 14.3658 52.289H20.2338C20.5938 52.289 20.8857 51.9955 20.8857 51.6335V47.8647C20.8857 47.5027 20.5938 47.2092 20.2338 47.2092H14.3658Z" fill="#474747"/>
<path fill-rule="evenodd" clip-rule="evenodd" d="M46.2319 53.7637C48.6175 53.7637 50.5514 51.8196 50.5514 49.4214C50.5514 47.0231 48.6175 45.079 46.2319 45.079C43.8464 45.079 41.9125 47.0231 41.9125 49.4214C41.9125 51.8196 43.8464 53.7637 46.2319 53.7637ZM46.2319 52.1251C47.7173 52.1251 48.9214 50.9513 48.9214 49.5033C48.9214 48.0553 47.7173 46.8815 46.2319 46.8815C44.7466 46.8815 43.5425 48.0553 43.5425 49.5033C43.5425 50.9513 44.7466 52.1251 46.2319 52.1251Z" fill="#474747"/>
<path fill-rule="evenodd" clip-rule="evenodd" d="M54.731 51.1988C55.5412 51.1988 56.1979 51.859 56.1979 52.6735V58.517H61.533C62.3433 58.517 63 59.1772 63 59.9918V60.0999C63 60.9145 62.3433 61.5747 61.533 61.5747H2.46698C1.65672 61.5747 1 60.9145 1 60.0999V59.9918C1 59.1772 1.65672 58.517 2.46698 58.517H7.80206V52.6735C7.80206 51.859 8.45878 51.1988 9.26905 51.1988L11.7579 51.1987V46.5538C11.7579 45.8298 12.3417 45.2429 13.0618 45.2429H21.5377C22.2579 45.2429 22.8417 45.8298 22.8417 46.5538V51.1986L26.1773 51.1986V33.4533H24.4818C23.6715 33.4533 23.0148 32.7931 23.0148 31.9785V25.1261C20.0202 22.5083 18.3166 18.7691 18.3166 14.7559C18.3166 7.1709 24.4549 1 32.0001 1C39.5453 1 45.6836 7.1709 45.6836 14.7559C45.6836 18.7691 43.9799 22.5081 40.9853 25.1261V31.9787C40.9853 32.7932 40.3286 33.4535 39.5184 33.4535H37.8229V51.1988H42.2897C42.1489 50.8836 42.0444 50.5485 41.9815 50.1988C41.9361 49.9465 41.9125 49.6867 41.9125 49.4214C41.9125 47.0231 43.8464 45.079 46.2319 45.079C48.6175 45.079 50.5514 47.0231 50.5514 49.4214C50.5514 49.6867 50.5277 49.9465 50.4823 50.1988C50.4195 50.5485 50.3149 50.8836 50.1741 51.1988H54.731ZM51.4954 50.1988H54.731C56.0985 50.1988 57.1979 51.3117 57.1979 52.6735V57.517H61.533C62.9005 57.517 64 58.6299 64 59.9918V60.0999C64 61.4618 62.9006 62.5747 61.533 62.5747H2.46698C1.09945 62.5747 0 61.4618 0 60.0999V59.9918C0 58.6299 1.09946 57.517 2.46698 57.517H6.80206V52.6735C6.80206 51.3117 7.90151 50.1988 9.26905 50.1988L10.7579 50.1988V46.5538C10.7579 45.2825 11.7844 44.2429 13.0618 44.2429H21.5377C22.8152 44.2429 23.8417 45.2825 23.8417 46.5538V50.1986L25.1773 50.1986V34.4533H24.4818C23.1143 34.4533 22.0148 33.3404 22.0148 31.9785V25.5708C19.0152 22.7813 17.3166 18.9022 17.3166 14.7559C17.3166 6.6236 23.8977 0 32.0001 0C40.1025 0 46.6836 6.6236 46.6836 14.7559C46.6836 18.9023 44.985 22.7812 41.9853 25.5708V31.9787C41.9853 33.3405 40.8859 34.4535 39.5184 34.4535H38.8229V50.1988H40.9684C40.9316 49.9449 40.9125 49.6853 40.9125 49.4214C40.9125 46.4759 43.2891 44.079 46.2319 44.079C49.1748 44.079 51.5514 46.4759 51.5514 49.4214C51.5514 49.6853 51.5323 49.9449 51.4954 50.1988ZM48.8257 50.1988C48.8881 49.9773 48.9214 49.7441 48.9214 49.5033C48.9214 48.0553 47.7173 46.8815 46.2319 46.8815C44.7466 46.8815 43.5425 48.0553 43.5425 49.5033C43.5425 49.7441 43.5758 49.9773 43.6381 50.1988C43.7432 50.572 43.9307 50.9119 44.1804 51.1988H48.2834C48.5331 50.9119 48.7207 50.572 48.8257 50.1988ZM47.7575 50.1988H44.7063C44.6009 49.9861 44.5425 49.7496 44.5425 49.5033C44.5425 48.6315 45.2747 47.8815 46.2319 47.8815C47.1892 47.8815 47.9214 48.6315 47.9214 49.5033C47.9214 49.7496 47.863 49.9861 47.7575 50.1988ZM20.8857 47.8647C20.8857 47.5027 20.5938 47.2092 20.2338 47.2092H14.3658C14.0057 47.2092 13.7138 47.5027 13.7138 47.8647V51.1987L20.8857 51.1987V47.8647ZM19.8857 50.1987V48.2092H14.7138V50.1987L19.8857 50.1987ZM10.736 54.1483V58.517H53.2638L53.2636 54.1483H10.736ZM11.736 55.1483V57.517H52.2638L52.2637 55.1483H11.736ZM27.0171 27.5742L27.0119 27.5719C26.9908 27.5636 26.9697 27.5552 26.9486 27.5468C26.8166 27.4937 26.6858 27.4378 26.5553 27.3809C26.5231 27.3669 26.4912 27.3525 26.4592 27.338L26.4306 27.3252C26.2996 27.2663 26.1693 27.2054 26.0399 27.142C26.0169 27.1308 25.9938 27.12 25.9708 27.1087L25.955 27.1013L25.9486 27.0982L25.9488 30.5039H38.0512V27.0982L38.029 27.1087L38.0049 27.1204L37.9886 27.1282L37.9599 27.142C37.8307 27.2054 37.7004 27.2663 37.5692 27.3252L37.4926 27.3596L37.4445 27.3809C37.3141 27.4378 37.1832 27.4937 37.0512 27.5467C37.0302 27.5552 37.0091 27.5636 36.988 27.5719L36.9828 27.5742C36.8279 27.6352 36.6716 27.6924 36.5146 27.7474C36.4721 27.7625 36.4294 27.7773 36.3867 27.7917C36.2511 27.8381 36.1148 27.8821 35.9776 27.9239L35.9464 27.9337C35.9322 27.9382 35.9181 27.9428 35.9039 27.947C35.7456 27.9944 35.5862 28.0381 35.4261 28.0796L35.4019 28.0857L35.3023 28.1104C35.1704 28.1432 35.0379 28.1738 34.9049 28.2026L34.8712 28.2102L34.8225 28.221L34.7961 28.2266C34.6341 28.2605 34.4713 28.2911 34.3078 28.3188C34.2868 28.3224 34.2657 28.3257 34.2446 28.3289L34.1991 28.336C34.064 28.3578 33.9282 28.3776 33.7921 28.3953L33.7869 28.396C33.746 28.4015 33.705 28.407 33.664 28.4121C33.4984 28.4321 33.3318 28.4496 33.1647 28.4635C33.1507 28.4647 33.1366 28.4656 33.1225 28.4665L33.0886 28.4689C32.9427 28.4804 32.796 28.4894 32.6493 28.4961C32.6038 28.4983 32.5582 28.5002 32.5125 28.5019C32.3422 28.5081 32.1714 28.5123 31.9999 28.5123C31.8284 28.5123 31.6576 28.5081 31.4873 28.5019C31.4416 28.5002 31.396 28.4983 31.3505 28.4961C31.2038 28.4894 31.0573 28.4804 30.9113 28.4689L30.8794 28.4667C30.8646 28.4658 30.8498 28.4648 30.8351 28.4635C30.6681 28.4496 30.5016 28.4321 30.3359 28.4121L30.2891 28.406L30.2078 28.3953C30.0717 28.3776 29.9359 28.358 29.8006 28.336L29.7553 28.3289L29.7225 28.3238L29.692 28.3188C29.5285 28.2911 29.3657 28.2603 29.2037 28.2266C29.1787 28.2214 29.1539 28.2158 29.1291 28.2102L29.095 28.2026C28.962 28.174 28.8296 28.1432 28.6976 28.1104L28.6858 28.1075C28.6487 28.0984 28.6108 28.089 28.5737 28.0796C28.4135 28.0381 28.2542 27.9944 28.096 27.947C28.0713 27.9396 28.0467 27.9315 28.0223 27.9239C27.885 27.8821 27.7488 27.8379 27.6132 27.7917C27.5705 27.7773 27.5277 27.7625 27.4852 27.7474C27.3282 27.6924 27.1719 27.6352 27.0171 27.5742ZM27.1527 28.6905C27.0852 28.6669 27.0172 28.6426 26.9487 28.6176L26.9487 29.5039H31.5295M31.3037 29.495C31.3514 29.4973 31.4007 29.4994 31.4508 29.5012ZM30.8337 29.4659C30.9904 29.4782 31.1472 29.4878 31.3037 29.495ZM32.4703 29.5039H37.0512V28.6175C36.9827 28.6426 36.9145 28.6669 36.847 28.6906M26.1552 28.2973C26.1168 28.2806 26.0771 28.2627 26.0446 28.248C26.0362 28.2443 26.0284 28.2407 26.0211 28.2375M27.1527 28.6905C27.1992 28.707 27.2456 28.723 27.2917 28.7386C27.4351 28.7874 27.5805 28.8347 27.7281 28.8797L27.7556 28.8884C27.7683 28.8924 27.7877 28.8986 27.809 28.905C27.9816 28.9566 28.1535 29.0038 28.3232 29.0477L28.3272 29.0487C28.3488 29.0542 28.3703 29.0596 28.3912 29.0648C28.4144 29.0705 28.4368 29.076 28.4575 29.0811M28.8817 29.1796C28.8867 29.1807 28.893 29.1822 28.9003 29.1838C28.927 29.1898 28.9662 29.1986 28.9997 29.2055C29.1734 29.2417 29.3481 29.2748 29.5237 29.3046C29.5507 29.3092 29.5757 29.3131 29.5942 29.3159L29.6397 29.323M30.7484 29.4598C30.7736 29.462 30.7959 29.4634 30.8089 29.4643L30.8337 29.4659M32.5491 29.5012C32.5992 29.4994 32.6484 29.4973 32.6961 29.495ZM33.167 29.4658L33.1926 29.4641C33.2051 29.4633 33.2255 29.4619 33.2478 29.4601M33.921 29.387C33.9218 29.3869 33.9225 29.3868 33.9233 29.3867C34.069 29.3677 34.2141 29.3465 34.3583 29.3233L34.36 29.323L34.4053 29.316C34.4234 29.3132 34.4482 29.3093 34.4748 29.3048C34.65 29.2751 34.8251 29.2422 35.0001 29.2055C35.0433 29.1966 35.0958 29.1846 35.1189 29.1795M36.2688 28.8806C36.2698 28.8803 36.2708 28.88 36.2718 28.8797C36.4183 28.835 36.5637 28.788 36.7081 28.7386M31.9999 4.94952C26.6299 4.94952 22.2504 9.34454 22.2504 14.7559C22.2504 17.7943 23.617 20.6082 26.0036 22.4848C27.7343 23.8457 29.8041 24.5627 31.9999 24.5627C34.1957 24.5627 36.2655 23.8457 37.9963 22.4848C40.3828 20.6082 41.7495 17.7943 41.7495 14.7559C41.7495 9.34454 37.3699 4.94952 31.9999 4.94952ZM33.8886 34.4535H30.1111V50.1988H33.8886V34.4535ZM21.2504 14.7559C21.2504 8.79723 26.0727 3.94952 31.9999 3.94952C37.9272 3.94952 42.7495 8.79723 42.7495 14.7559C42.7495 18.1008 41.2422 21.2046 38.6144 23.2709C36.7078 24.7701 34.4204 25.5627 31.9999 25.5627C29.5794 25.5627 27.292 24.7701 25.3855 23.2709C22.7576 21.2046 21.2504 18.1008 21.2504 14.7559ZM34.8886 33.4535V51.1988H29.1111V33.4535H34.8886Z" fill="#474747"/>
</svg>
