<svg width="56" height="55" viewBox="0 0 56 55" fill="none" xmlns="http://www.w3.org/2000/svg">
<path fill-rule="evenodd" clip-rule="evenodd" d="M12.9498 28.2714L3.31269 37.9085L17.7684 52.3641L27.4055 42.727C37.0426 49.9549 41.8612 47.5456 46.6797 42.727L53.9076 35.4992L20.1776 1.76929L12.9498 8.99712C8.13125 13.8157 5.72197 18.6342 12.9498 28.2714ZM22.4579 30.0998L14.1922 38.3655L17.3113 41.4847L25.5771 33.2189C30.5677 36.9619 36.5721 43.9331 41.0169 38.6775L43.6682 36.0262L19.6507 12.0087L16.9994 14.66C11.4629 19.6507 18.7149 25.1091 22.4579 30.0998Z" fill="#474747"/>
<path d="M25.1092 10.9752L36.0844 0L40.7161 4.63171L29.7409 15.6069L25.1092 10.9752Z" fill="#474747"/>
<path d="M40.3931 24.0757L51.3683 13.1005L56 17.7322L45.0248 28.7074L40.3931 24.0757Z" fill="#474747"/>
<path d="M0 50.2766L10.9752 39.3014L15.6069 43.9331L4.63171 54.9083L0 50.2766Z" fill="#474747"/>
</svg>
